<svg width="512" height="512" viewBox="0 0 512 512" fill="none" xmlns="http://www.w3.org/2000/svg">
<g clip-path="url(#clip0)">
<path d="M259.862 503.721L498.423 405.202L256 305.089L13.5756 405.202L252.137 503.721C254.611 504.742 257.389 504.742 259.862 503.721Z" fill="#04F5A4"/>
<path d="M498.423 405.202V129.638C498.423 125.738 496.183 122.186 492.665 120.506L256 7.48132V305.089L498.423 405.202Z" fill="#8697FA"/>
<path d="M498.428 405.199L259.861 503.718C257.39 504.738 254.609 504.738 252.138 503.718L235.689 496.941C235.839 496.891 235.999 496.831 236.149 496.771L477.418 396.526L498.428 405.199Z" fill="#04F5A4"/>
<path d="M498.428 129.635V405.199L477.419 396.525V114.047C477.419 113.767 477.409 113.487 477.379 113.207L492.666 120.51C496.187 122.19 498.428 125.742 498.428 129.635V129.635Z" fill="#8697FA"/>
<path d="M13.575 405.202V129.637C13.575 125.738 15.8151 122.186 19.3333 120.506L255.999 7.48102V305.089L13.575 405.202Z" fill="#FE5694"/>
<path d="M504.667 409.471C505.453 408.398 505.927 407.03 505.927 405.201C505.927 405.199 505.927 129.638 505.927 129.638C505.927 122.887 501.991 116.645 495.899 113.735L441.544 87.7758C437.805 85.9897 433.324 87.5728 431.538 91.3129C429.752 95.0531 431.336 99.5323 435.075 101.318L489.431 127.277C490.336 127.71 490.92 128.637 490.92 129.638V393.985L263.503 300.069V19.3809L403.54 86.2587C407.277 88.0418 411.759 86.4607 413.545 82.7216C415.331 78.9814 413.747 74.5022 410.007 72.7161L259.233 0.710057C259.221 0.704057 259.207 0.700057 259.195 0.695057C257.339 -0.178981 255.112 -0.216982 253.251 0.515049C253.102 0.574051 16.1004 113.735 16.1004 113.735C10.0082 116.645 6.07201 122.886 6.07201 129.638V405.206C6.07401 408.371 7.87608 410.849 10.6842 411.959C11.7482 412.38 88.5816 444.289 92.2747 445.82C96.1069 447.403 100.493 445.58 102.073 441.748C103.656 437.918 101.833 433.531 98.002 431.949L33.2352 405.202L256 313.207L478.765 405.202L256.999 496.785C256.356 497.051 255.647 497.052 255.002 496.784L130.266 445.273C126.437 443.691 122.048 445.514 120.467 449.345C118.886 453.175 120.708 457.564 124.539 459.145L249.273 510.655C251.443 511.551 253.722 511.999 256.002 511.999C258.28 511.999 260.56 511.551 262.728 510.656C264.307 510.004 265.886 509.352 267.466 508.699C271.827 506.898 492.79 415.648 497.02 413.901C499.954 412.689 503.007 411.736 504.667 409.471ZM22.5687 127.277L248.495 19.3809V300.069L21.0797 393.984V129.638C21.0797 128.637 21.6637 127.709 22.5687 127.277V127.277Z" fill="black"/>
</g>
<defs>
<clipPath id="clip0">
<rect width="512" height="512" fill="white"/>
</clipPath>
</defs>
</svg>
