<svg xmlns="http://www.w3.org/2000/svg"  viewBox="0 0 64 64"><defs fill="#d9730d" /><path  d="m41,30c-2.52,0-4.93.72-7,2.05v-14.05c0-6.16-2.84-10-9-10-3.38,0-5.75,1.16-7.21,3.22-1.73-2.06-4.41-3.22-7.79-3.22v6c2.46,0,4,1.54,4,4v18h6v-18c0-2.46,1.54-4,4-4s4,1.54,4,4v19.62l-8.33,8.33c-1.32,1.32-3.08,2.05-4.95,2.05h-4.72v6h4.72c3.47,0,6.74-1.35,9.19-3.81l4.39-4.39c1.28,5.83,6.49,10.2,12.7,10.2,7.17,0,13-5.83,13-13s-5.83-13-13-13Zm0,20c-3.86,0-7-3.14-7-7v-2.9l2.05-2.05c1.32-1.32,3.08-2.05,4.95-2.05,3.86,0,7,3.14,7,7s-3.14,7-7,7Z" fill="#d9730d" /></svg>