<svg xmlns="http://www.w3.org/2000/svg" viewBox="0 0 64 64"><path d="M25 51.98v0c-1.11.01-2.02-.87-2.04-1.97 -.02-1.11.86-2.02 1.96-2.04 .02-.01.04-.01.06 0 2.63 0 4.398-1.28 5.88-4.26l5.87-11.75 -7.76-15.53 -6.77 13.52h0c-.61 1.22-1.87 2-3.24 1.99h-.01v0c-1.38 0-2.63-.78-3.24-2L8.72 15.93h-.77v0c-1.11.01-2.02-.87-2.04-1.97 -.02-1.11.86-2.02 1.96-2.04 .02-.01.04-.01.06 0h.99v0c1.37-.01 2.63.77 3.24 2l6.74 13.52 6.76-13.53V13.9c.6-1.23 1.86-2.01 3.23-2h0v0c1.37-.01 2.62.76 3.23 1.99l6.77 13.55c2.14-3.74 5.08-5.56 8.98-5.56v0c3.91-.14 7.52 2.13 9.1 5.71v0c1.44 3.17 1.16 6.86-.75 9.78h0c-1.85 2.81-4.99 4.5-8.36 4.5 -3.91 0-6.85-1.83-8.99-5.56l-4.55 9.09c-2.18 4.35-5.28 6.46-9.47 6.46Zm16.23-20l.87 1.74c1.48 2.98 3.24 4.25 5.88 4.25v0c2.02 0 3.91-1.02 5.02-2.71v0c1.15-1.8 1.3-4.07.4-6.01v0c-.94-2.1-3.06-3.41-5.35-3.3 -2.72 0-4.48 1.27-5.97 4.25Z" fill="#d9730d" /></svg>